# xmcd
#
# Track frame offsets: 
#        150
#        55690
#        96380
#        141585
#        159455
#        189270
#        209702
#        263400
#
# Disc length: 3989 seconds
#
# Revision: 1
# Processed by: cddbd v1.5.2PL0 Copyright (c) Steve Scherf et al.
# Submitted via: ExactAudioCopy v0.95b4
#
DISCID=710f9308
DTITLE=Sakari Oramo and City of Birmingham Symphony Orchestra - Sibelius
DTITLE=: Symphony No.5, Karelia Suite
DYEAR=2001
DGENRE=Classical
TTITLE0=Symphony No.5 in E flat major, op.82 - I. Tempo molto moderato
TTITLE0=Allegro moderato (ma poco a poco stretto)
TTITLE1=Symphony No.5 in E flat major, op.82 - II. Andante mosso, quas
TTITLE1=i allegretto
TTITLE2=Symphony No.5 in E flat major, op.82 - III. Allegro molto
TTITLE3=Karelia Suite, op.11 - I. Intermezzo: Moderato
TTITLE4=Karelia Suite, op.11 - II. Ballade: Tempo di menuetto
TTITLE5=Karelia Suite, op.11 - III. Alla marcia: Moderato
TTITLE6=Pohjola's Daughter, op.49
TTITLE7=The Bard, op.64
EXTD=
EXTT0=
EXTT1=
EXTT2=
EXTT3=
EXTT4=
EXTT5=
EXTT6=
EXTT7=
PLAYORDER=
